<?xml version="1.0" encoding="UTF-8" standalone="no"?>
<svg
   xmlns:dc="http://purl.org/dc/elements/1.1/"
   xmlns:cc="http://creativecommons.org/ns#"
   xmlns:rdf="http://www.w3.org/1999/02/22-rdf-syntax-ns#"
   xmlns:svg="http://www.w3.org/2000/svg"
   xmlns="http://www.w3.org/2000/svg"
   xmlns:sodipodi="http://sodipodi.sourceforge.net/DTD/sodipodi-0.dtd"
   xmlns:inkscape="http://www.inkscape.org/namespaces/inkscape"
   width="1363.4pt"
   height="496.87pt"
   version="1.2"
   viewBox="0 0 1363.4 496.87"
   id="svg111"
   sodipodi:docname="berlin_U.svg"
   inkscape:export-filename="/home/simon/projects/led_panels/sprites/clubs/berlin_U42.png"
   inkscape:export-xdpi="2.22"
   inkscape:export-ydpi="2.22"
   inkscape:version="0.92.3 (2405546, 2018-03-11)">
  <sodipodi:namedview
     pagecolor="#000000"
     bordercolor="#666666"
     borderopacity="1"
     objecttolerance="10"
     gridtolerance="10"
     guidetolerance="10"
     inkscape:pageopacity="1"
     inkscape:pageshadow="2"
     inkscape:window-width="790"
     inkscape:window-height="480"
     id="namedview113"
     showgrid="false"
     inkscape:zoom="0.19363356"
     inkscape:cx="908.93335"
     inkscape:cy="331.24666"
     inkscape:window-x="0"
     inkscape:window-y="27"
     inkscape:window-maximized="0"
     inkscape:current-layer="svg111" />
  <metadata
     id="metadata2">
    <rdf:RDF>
      <cc:Work
         rdf:about="">
        <dc:format>image/svg+xml</dc:format>
        <dc:type
           rdf:resource="http://purl.org/dc/dcmitype/StillImage" />
        <dc:title></dc:title>
      </cc:Work>
    </rdf:RDF>
  </metadata>
  <defs
     id="defs45">
    <clipPath
       id="clipPath6">
      <path
         d="m0 0.26953h595.28v537.75h-595.28z"
         id="path4" />
    </clipPath>
    <clipPath
       id="clipPath10">
      <path
         d="m0 1h595.28v537h-595.28z"
         id="path8" />
    </clipPath>
    <clipPath
       id="clip4">
      <rect
         width="596"
         height="539"
         id="rect12" />
    </clipPath>
    <g
       clip-path="url(#clip4)"
       id="g15" />
    <clipPath
       id="clip2">
      <rect
         width="596"
         height="539"
         id="rect17" />
    </clipPath>
    <g
       clip-path="url(#clip2)"
       id="g20" />
    <clipPath
       id="clipPath24">
      <path
         d="m0.054688 0.11328h182.16v37.199h-182.16z"
         id="path22" />
    </clipPath>
    <clipPath
       id="clip7">
      <rect
         width="183"
         height="38"
         id="rect26" />
    </clipPath>
    <g
       clip-path="url(#clip7)"
       id="g29" />
    <clipPath
       id="clip11">
      <rect
         width="73"
         height="27"
         id="rect31" />
    </clipPath>
    <g
       clip-path="url(#clip11)"
       id="g34" />
    <clipPath
       id="clipPath38">
      <path
         d="m0.14062 0.98047h302.88v118.56h-302.88z"
         id="path36" />
    </clipPath>
    <clipPath
       id="clip15">
      <rect
         width="304"
         height="120"
         id="rect40" />
    </clipPath>
    <g
       clip-path="url(#clip15)"
       id="g43" />
  </defs>
  <g
     transform="matrix(2.5847 0 0 2.5847 -66.651 -372.76)"
     stroke-width=".38689"
     id="g109">
    <path
       d="m521.61 202.52s-0.53804-1.954-2.5628-1.954h-215.12c-8.7717-8.6797-18.705-13.197-18.726-13.211h2.0177 132.45s2.0177 0 1.4796-1.9469l-10.881-39.243s-0.53806-1.9469-2.5628-1.9469h-380.35s-2.0177 0-1.4797 1.9469l10.881 39.243s0.54513 1.9469 2.5628 1.9469h18.542s2.0248 0 2.5628 1.954l35.221 127s0.53805 1.9469 2.5628 1.9469h92.298s2.0248 0 2.3505 0.28318c0.33274 0.28319 20.998 17.912 53.027 17.912 32.361 0 52.17-17.628 52.489-17.912 0 0 0.31149-0.28318 2.3363-0.28318h250.97s2.0248 0 1.4797-1.9469z"
       fill="#fff"
       id="path47" />
    <path
       d="m209.94 315.03c24.8 14.478 54.436 10.655 72.574-7e-3l10.117 7e-3c-28.418 20.807-66.613 18.457-92.68 0z"
       fill="#fddc02"
       id="path49" />
    <path
       d="m199.95 315.03c-23.037-16.312-36.595-45.211-25.543-81.827h-21.345l21.274 78.365h-72.404l-36.616-131.89h-22.499l-8.0425-28.814h370.76l7.908 29.855h-274.56l6.8885 25.494h46.365c37.359-35.313 89.452-21.657 109.63 1.1044h214.77l29.182 103.86h-248.24c-1.5788 1.3664-3.1929 2.6478-4.8425 3.8513h-10.117c2.4637-1.4513 4.708-3.023 6.7044-4.6938-1.5646-5.6566-3.0655-11.384-4.6301-17.168-10.025 9.2956-29.933 19.837-58.096 7.3487-24.68-12.616-41.451-49.558-8.8637-79.476 12.276-10.273 30.004-14.046 43.774-9.8832-1.6354-6.308-3.0655-12.616-4.7009-18.924-32.524-4.1628-63.207 11.122-76.432 43.179-8.3894 20.751-5.1823 54.506 24.609 76.354 1.6637 1.1752 3.3487 2.2655 5.062 3.2637zm27.462-25.997-0.57344 2.9593c0.19822-0.99823 0.38229-1.9752 0.57344-2.9593m-23.009-34.436c3.7522 6.308 10.57 10.733 21.069 12.942 0.41062-1.4301 0.82126-2.7965 1.2248-4.2266-9.069-1.8195-15.405-5.3947-18.407-10.924-1.2956 0.71505-2.5912 1.4938-3.8867 2.2089m60.545-34.528c5.0478-10.152 12.34-15.809 20.729-19.186-0.54514-1.3664-1.1611-2.7328-1.777-4.0354-9.4726 3.7097-17.522 10.145-23.044 21.458zm37.296-5.8549c-19.228 8.6513-29.798 19.051-35.455 40.772 1.4301 0.38938 2.8602 0.84957 4.2266 1.2389 0.47434-1.4938 1.0195-3.0584 1.5009-4.5522 13.296 10.081 19.158 24.255 21.954 37.331 1.5646-0.26195 2.7965-0.58762 4.3611-0.78584-4.0212-18.662-12.205-32.382-24.949-40.899 2.8602-7.6744 7.016-13.529 12.404-18.216 17.388 13.204 25.912 31.349 27.002 53.657 1.5009 0 3.0018 0.0638 4.4956 0.0638-1.5646-25.296-11.384-43.767-28.085-56.581 4.6372-3.377 9.2036-6.046 14.11-8-0.40354-0.19115-0.75045-0.19115-1.1611-0.32565 0.89204-1.2319 1.777-2.4071 2.5982-3.639-0.48143-0.12741-0.95577-0.26195-1.3664-0.26195-0.47434 0-1.0195 0.0638-1.6354 0.19824m-169.98 91.632h9.3452c-0.61593-2.1451-1.2319-4.4248-1.8407-6.6974-2.7327 1.5575-5.5292 2.7328-8.5947 2.9876zm174.61-92.807c21.883 27.512 21.338 66.662-3.4124 92.418h234.4l-25.975-92.418zm-222.75-56.446h-41.593l4.8425 17.366h22.506l36.68 131.89h19.497c-0.41062-1.3664-0.82123-2.8602-1.2318-4.2903-13.841-4.2903-16.361-19.32-7.8372-27.901zm45.614 117.58c-6.4779 0-11.724 5.0124-11.724 11.122 0 6.1805 5.246 11.186 11.724 11.186 6.4071 0 11.66-5.0053 11.66-11.186 0-6.1098-5.2531-11.122-11.66-11.122m-23.795-117.58 31.979 113.88c8.7222 4.8142 12.404 13.982 6.6761 23.866 1.0266 3.9009 2.1168 7.7452 3.2071 11.512h18.747l-21.204-78.429h31.497c2.8673-5.9186 6.1381-11.058 9.9611-15.42h-45.749l-9.9611-37.069h274.63l-4.9133-18.336zm142.9 72.836c-1.6354-0.0638-3.0655-0.12741-4.2266-0.0638-1.2248 0-2.4566 0-3.7522-0.26195-0.53804-0.32567-0.88496-1.1044-0.88496-2.2726 0-0.19822-0.26903-0.4531-0.54513-0.26195-1.0903 0.84956-1.0903 2.0814-0.67965 2.7965 0.47434 0.77876 1.2956 1.3027 2.2513 1.5646 0.26902 0.0638 0.54514 0.12741 0.81415 0.12741 0.48143 0 1.0266 0 2.046 0.0636 0.88496 0 1.777 0 2.5912-0.0636 1.0053-0.0638 1.8761-0.0638 2.6124-0.12741l-0.13448-0.97699c-0.0353-0.16982-0.0709-0.34691-0.0921-0.52389m-117.88 39.087-31.228-111.92h-9.4726l31.908 113.55c2.5204-1.0407 5.3876-1.692 8.793-1.6283"
       fill="#fddc02"
       id="path51" />
    <g
       fill="#211e1e"
       id="g61">
      <path
         d="m257.25 222.41c0.54514-0.19116 1.0903-0.4531 1.6354-0.71505 0.0638-0.0638 0.41064-0.12741 1.5009-0.12741v-0.32565c0-0.32567-0.14155-0.38939-0.33982-0.4531-0.20531 0-0.48143-0.0709-0.75044-0.0709-0.61595 0-1.1611 0.0709-1.3664 0.32567-0.33982 0.38939-0.67965 0.71504-0.95575 1.0407 0.0709 0.13448 0.20531 0.26195 0.2761 0.32567m-6.4071 2.1451c-0.48141-0.9062-0.95575-1.7558-1.5717-2.4708-0.27612-0.32567-1.0266-0.32567-1.2248 0-0.34691 0.38937-0.48143 1.1681-0.61594 1.954-0.0709 0.12741-0.0709 0.26194 0 0.38937 0.13448 0.0638 0.2053 0.19823 0.33982 0.26195 0.13448 0.12741 0.27612 0.0638 0.41062 0 0.26903-0.26195 0.33982-0.65132 0.26903-1.1044l0.41062-0.19824c0.13447 0.12741 0.20532 0.4531 0.27611 0.77877v0.32567c-0.0709 0.19822 0.13448 0.32565 0.41062 0.32565 0.40355-0.0636 0.81416-0.19115 1.2956-0.26195m-1.5717 7.6744-0.18409-1.2956c0-0.30443-0.0709-0.63717-0.14154-0.97699l-0.085-0.58762c-0.26902-0.32567-0.67965-0.65132-0.88496-0.97699-2.046-0.38938-3.8867-0.84247-5.862-1.2956-0.33983-0.0709-0.54513-0.19824-0.75044-0.39647-0.82125-0.77876-1.3664-1.6213-1.7699-2.4708-0.3469-0.90619 0.13448-1.4301 1.2248-1.6212 1.4301-0.19822 2.931-0.38937 4.4319-0.52389 0.41061-0.0638 0.67964-0.19115 0.88495-0.38938 2.1097-2.0177 5.0478-2.4071 8.1133-2.1452 0.95575 0.0638 2.7257 0.4531 3.7522 0.12741 3.2-0.19115 4.0921 1.1752 3.6106 3.3204-0.13448 0.4531-0.0709 0.97699 0 1.4938 0.95575 2.5345 1.5646 5.0761 0.82125 7.7381-0.95576 2.2159-1.9115 4.4885-1.0903 5.9894 1.0195 2.2726 1.6354 4.5452 0.94868 6.6266-0.67965 3.0584-2.3859 6.6337-1.5646 9.3664 0.75045 1.8266 2.1168 7.4195 3.0655 10.145 0.54513 1.8903 1.5717 3.2566 2.662 4.623 0.88495 1.2956 1.5009 2.5345 1.9115 3.7664-0.5522 0-1.0265 0.0709-1.5717 0.0709 1.0195 5.7841 1.7062 14.046 3.2708 15.412-0.13448 0.38939-0.20531 0.84249-0.33983 1.2319 0 0.3894-0.75044 0.58762-1.0195 1.0407-1.9823 4.4248-4.8425 6.9593-10.435 8.4531v-0.19115c-0.60886-1.5504-1.6142-3.6673-2.5628-5.4796 1.8973-1.1682 3.6602-2.4 4.8142-3.6248-8.1841-7.1576-8.4531-9.4301-9.8903-17.041 0-0.32565-0.13448-0.4531-0.33983-0.4531-0.26903 0-0.54513 0.0638-0.81416 0.0638 0.67965 2.4708 1.2956 4.9416 1.9752 7.3487-5.1115 3.7027-8.1133 6.6974-9.2036 14.761-0.41063 1.5009-1.4301 1.8195-2.5912 1.5646-1.8407-0.65134-3.5469-0.97699-4.977-0.91328-2.662-0.32565-5.2531-1.4301-7.8372-2.9947 0.40353-2.0177 0.75044-3.9646 1.154-5.9823 0.75044 0.26195 1.5717 0.58762 2.1168 0.52389 0.75046 0.12742 1.0195 0.25488 1.3593 0.58053 0.27612 0.19824 0.48143 0.46019 1.2956 0.39646 0.41062 0 2.046 0.9062 2.5912 0.4531-1.4938-11.058 1.6354-15.221 9.6142-20.616 0.27612-0.13448 0.41063-0.0636 0.75046 0.12741 0.33982 0.32565 0.61592 0.65132 0.95575 0.97699 0.67964 0.26195 0.75044-0.19824 0.33982-0.58762-2.7965-1.5575-3.9505-4.4177-4.4956-7.7381-0.0709-0.12742 0.0638-0.3894-0.55222-0.12742-11.795 3.9646-13.975 2.4071-21.749-4.0991l1.9965-3.2425c0.50265-0.79293 1.0124-1.5858 1.5363-2.3858 2.6266 1.4867 3.9788 3.0372 4.8567 4.5876 0.26903 0.38937 0.48141 0.32567 0.75044 0.13448 3.6106-2.0814 7.2921-3.9717 10.981-5.7912-0.0709-0.26194-0.14155-0.52389-0.14155-0.71504-0.81417 0.4531-1.6354 0.91328-2.4566 1.3027-9.2602-5.3947-14.506-4.7505-17.508-17.069 0.0709 0.0212 0.16982 7e-3 0.26195-0.0424 1.6354-0.86373 3.1504-1.6283 4.8283-2.485l0.21946-0.11328c1.154 1.4301 1.9044 3.5752 2.4496 5.9823-0.13448 0.19824 0.14155 0.52391 0.2761 0.58762 4.2266 1.1044 8.3823 2.2089 12.545 3.1859-1.1611 1.8902-1.9752 3.5115-2.3221 4.5522-0.26901 1.3664-0.54513 2.5345-0.54513 2.9947h0.75046c1.2318-6.7044 2.8673-9.1045 9.6142-12.099 0-0.4531-0.0709-0.977-0.0709-1.4301-0.94868 0.19115-1.9044 0.19115-2.8602 0-0.47434-0.12741-0.95576-0.26195-1.7062-0.26195-1.6354-0.5168-1.0903-2.0106-0.26904-1.8832 1.3593-0.19822 2.3151 0 3.0655 0.26195 0.33982 0.19115 1.4301 0.25488 2.7965 0.25488"
         id="path53" />
      <path
         d="m204.41 254.6c1.2956-0.71505 2.5912-1.4938 3.8867-2.2089 3.0018 5.5292 9.3381 9.1044 18.407 10.924-0.40353 1.4301-0.81417 2.7965-1.2248 4.2266-10.499-2.2089-17.317-6.6336-21.069-12.942"
         id="path55" />
      <path
         d="m264.95 220.07-4.092-1.7628c5.5221-11.313 13.572-17.749 23.044-21.458 0.61594 1.3027 1.2319 2.669 1.777 4.0354-8.3894 3.377-15.681 9.0337-20.729 19.186"
         id="path57" />
      <path
         d="m302.25 214.22c0.61592-0.13448 1.1611-0.19824 1.6354-0.19824 0.41061 0 0.88495 0.13448 1.3664 0.26194-0.82125 1.239-1.7062 2.4071-2.5982 3.639 0.41062 0.13448 0.75753 0.13448 1.1611 0.32565-4.9062 1.954-9.4726 4.616-14.11 8 16.701 12.814 26.52 31.285 28.085 56.581-1.4938 0-2.9947-0.0638-4.4956-0.0638-1.0903-22.308-9.6142-40.453-27.002-53.657-5.3876 4.6868-9.5434 10.542-12.404 18.216 12.743 8.5168 20.928 22.237 24.949 40.906-1.5646 0.19115-2.7965 0.51682-4.3611 0.77876-2.7965-13.069-8.6584-27.25-21.954-37.331-0.47434 1.4938-1.0265 3.0584-1.5009 4.5522-1.3664-0.38938-2.7965-0.84248-4.2266-1.2389 5.6566-21.72 16.227-32.128 35.455-40.772"
         id="path59" />
    </g>
    <path
       d="m320.99 218.64 18.549 68.354c1.6354 6.4354 4.8354 11.448 13.494 11.384h16.574c4.6372 0 7.4974-1.7558 5.6567-8.3894-6.4071-23.738-12.885-47.547-19.299-71.349h-9.8124l19.158 69.586c0.54513 1.6283 0 2.3434-1.2319 2.4071h-5.3806c-1.0903-0.0636-1.777-0.58053-2.046-1.685-6.4071-23.412-12.885-46.825-19.299-70.308zm57.813 0h-16.63l21.954 79.738h10.025l-12.821-46.634 24.814 46.634h16.432l-21.812-79.738h-9.1399l12.135 43.774zm107.46 0h-16.701l22.018 79.738h9.954l-12.814-46.634 24.885 46.634h16.361l-21.749-79.738h-9.1328l12.135 43.774zm-79.363 0 22.096 79.738h12.609l-22.089-79.738zm22.435 8.7788c3.9505 19.774 10.634 41.239 16.637 60.878 2.2513 7.2213 6.6124 10.471 10.973 10.081 0.47434 0 1.0266 0 1.5009 0.0638 5.593 0 11.044 0 16.496-0.0638 4.977 0.12741 8.0496-1.8266 8.4602-6.5062v-2.2726c-0.0709-0.97699-0.2761-2.0177-0.4814-3.1221l-16.977-61.855c-1.154-3.8372-3.8867-5.3947-7.4974-5.7841-0.95575-0.12742-1.9752-0.19823-3.0018-0.19823-5.4513-0.0638-11.32-0.0638-17.862 0-5.246 0.13448-8.0425 2.4779-8.2478 6.8956zm-122.45-14.372h205.01l25.975 92.418h-234.4c24.751-25.756 25.296-64.906 3.4124-92.418m151.56 28.616c4.2974 15.674 8.5239 31.158 12.885 46.896 0.20532 1.1681-0.33983 1.7558-1.7062 1.8832h-4.2903c-2.5274-0.12741-4.0283-3.2496-4.9841-6.4425-0.60885-2.3363-1.2248-4.7434-1.9044-7.0868-4.5664-16.453-9.6142-33.296-12.885-49.098-0.14155-1.1752 0.13448-1.7558 1.4301-1.7558 2.046 0 4.1558-0.0709 6.1381-0.0709 0.54514 0 1.0903 0.0709 1.154 0.65133 1.4372 5.0761 2.7965 10.018 4.1628 15.023"
       fill="#fff"
       id="path63" />
    <g
       fill="#eb1923"
       id="g103">
      <path
         d="m84.136 156.6 32.864 117.06c-8.5239 8.5876-6.0036 23.604 7.8372 27.901 0.41062 1.4301 0.82123 2.9239 1.2318 4.2903h-19.497l-36.68-131.89h-22.506l-4.8425-17.366z"
         id="path65" />
      <path
         d="m129.75 274.18c6.4071 0 11.66 5.0053 11.66 11.115 0 6.1805-5.2531 11.186-11.66 11.186-6.4779 0-11.724-5.0053-11.724-11.186 0-6.1098 5.246-11.115 11.724-11.115"
         id="path67" />
      <path
         d="m105.96 156.6h294.88l4.9133 18.336h-274.63l9.9611 37.069h45.749c-3.823 4.3611-7.0938 9.5009-9.954 15.42h-31.505l21.204 78.429h-18.747c-1.0903-3.7735-2.1805-7.6106-3.2071-11.512 5.7275-9.8832 2.046-19.058-6.6832-23.866z"
         id="path69" />
      <path
         d="m261.4 211.16c-13.77-4.1629-31.497-0.38939-43.774 9.8832-32.588 29.919-15.816 66.86 8.8637 79.476 28.163 12.481 48.071 1.9469 58.089-7.3487 1.5717 5.7841 3.0726 11.512 4.6372 17.168-17.72 14.825-55.363 21.982-84.333 1.4301-29.798-21.848-32.998-55.604-24.616-76.354 13.225-32.057 43.908-47.342 76.432-43.179 1.6354 6.308 3.0655 12.616 4.7009 18.924"
         id="path71" />
      <path
         d="m249.14 230.94-0.18406-0.97699c0.0636 0.33983 0.13448 0.67257 0.18406 0.97699"
         id="path73" />
      <path
         d="m248.86 229.43c0.0212 0.17689 0.0565 0.35398 0.085 0.52389l0.14154 0.97699c-0.73628 0.0638-1.6071 0.0638-2.6124 0.12741-0.81417 0.0636-1.7062 0.0636-2.5912 0.0636-1.0195-0.0636-1.5646-0.0636-2.046-0.0636-0.26901 0-0.54513-0.0638-0.81415-0.12741-0.95576-0.26194-1.777-0.78583-2.2513-1.5646-0.41061-0.71505-0.41061-1.954 0.67965-2.7965 0.2761-0.19823 0.54513 0.0638 0.54513 0.26194 0 1.1682 0.33983 1.9469 0.88496 2.2726 1.2956 0.26195 2.5274 0.26195 3.7522 0.26195 1.1611-0.0636 2.5912 0 4.2266 0.0638"
         id="path75" />
      <path
         d="m220.24 232.73c1.692-0.84956 3.3912-1.6637 5.0974-2.5345-1.685 0.86371-3.2 1.6212-4.8354 2.4991-0.0921 0.0424-0.19115 0.0566-0.26194 0.0353"
         id="path77" />
      <path
         d="m225.48 229.63c0.0638 0.19824 0.0638 0.32567 0.0638 0.4531-1.7699 0.91329-3.5398 1.7558-5.3168 2.5982-0.60884-0.31858-1.2885-0.70797-1.7699-1.0336-0.33982-0.32565 0-0.71505 0.41062-0.52389 0.47434 0.13448 0.95577 0.26194 1.5009 0.38939h0.26903c-0.33982-0.58055-1.154-1.2319-1.8407-1.8195l0.2053-0.38938c0.54514 0.26195 1.1611 0.52389 1.7699 0.77875l-1.0195-1.5575c0.0709-0.0709 0.20532-0.13448 0.33982-0.26194 0.75046 0.77875 1.5009 1.5646 2.3221 2.0814-0.20531-1.0407-0.5522-2.0177-0.95575-2.9947l0.40355-0.19115c0.5522 0.97699 1.1611 1.8832 1.9115 2.7328-0.33983-0.71505-0.81415-1.5646-1.4301-2.3434-0.2761-0.58761 0.47434-0.65134 0.67965-0.52391 0.95577 0.65134 1.6354 1.5646 2.4566 2.6053"
         id="path79" />
      <path
         d="m223.71 250.25c-0.47434 0.82832-0.98408 1.6212-1.4867 2.4142z"
         id="path81" />
      <path
         d="m222.22 252.66c-0.67258 1.062-1.331 2.131-1.9965 3.2425zm1.5292-2.3858c-0.53097 0.82123-1.0336 1.6-1.5292 2.3858zm0.0212-0.0283-1.5504 2.4142-1.9965 3.2425c-0.26901-0.19824-0.47434-0.38939-0.74335-0.58761-0.14155-0.12741-1.0266-0.58053-1.5009-0.9062-0.14155-0.19824-0.0709-0.38939 0.20531-0.46019 0.47434-0.0636 0.94868-0.0636 1.4301-0.12741-0.54515-0.26194-1.0903-0.58053-1.6354-0.84247 0-0.12741 0-0.32567 0.0638-0.46019 0.61592 0 1.2319-0.0638 1.8407-0.0638-0.47434-0.38938-1.154-0.71505-1.5009-1.1044-0.26903-0.4531 0.20531-0.65134 0.41062-0.51683 0.68673 0.0638 1.3664 0.19116 1.9752 0.12742l-1.2885-1.2389c0.0636-0.12741 0.19822-0.25486 0.26902-0.32567 0.61594 0.19824 1.2956 0.46019 1.9115 0.71505-0.2761-0.38938-0.55222-0.84248-0.82123-1.2318 0.0709-0.12742 0.13448-0.12742 0.26901-0.26195 1.3027 0.71504 2.1876 1.2389 2.662 1.6283"
         id="path83" />
      <path
         d="m258.27 298.77c-0.53098-1.0195-1.0336-2.0885-1.5363-3.1788l-0.86371-1.9398c0.91328 1.7204 1.8336 3.6673 2.4 5.1186"
         id="path85" />
      <path
         d="m256.73 295.59c-0.34689-0.75753-0.6938-1.5221-1.0549-2.2867l0.19116 0.34691z"
         id="path87" />
      <path
         d="m255.68 293.24c0.88496 1.9398 1.6991 3.8089 2.577 5.685-0.66549 0.36106-1.2814 0.62301-1.8266 0.88496 0.33982-0.58762 0.67965-1.1752 0.95575-1.7558-0.67965 0.4531-1.3664 0.96992-2.046 1.4938 0.47434-0.71504 0.88495-1.4301 1.2956-2.1451-0.82125 0.12741-1.7062 0.32567-2.5204 0.5168 0.67964-0.64423 1.3593-1.2318 2.0389-1.8832-0.74335 0.26195-1.4301 0.58053-2.1097 0.84249 0.41062-0.65133 0.88496-1.2319 1.2956-1.8195-0.67965 0-1.4301 0.0638-2.046 0.12741 0.75044-0.64425 1.5717-1.2956 2.3858-1.9469"
         id="path89" />
      <path
         d="m226.84 292-1.777 0.13448 1.5717-1.239-2.5275-0.65132 2.5912-0.96992-2.046-1.1752 2.3221-0.32566-1.9752-1.6212 2.6549 0.19116-1.6354-0.8425 1.9752 0.51683z"
         id="path91" />
      <path
         d="m320.99 218.64h16.361c6.4142 23.483 12.892 46.896 19.299 70.308 0.26901 1.1044 0.95575 1.6212 2.046 1.685h5.3806c1.2319-0.0636 1.777-0.77875 1.2319-2.4071l-19.158-69.586h9.8124c6.4142 23.802 12.892 47.611 19.299 71.349 1.8407 6.6337-1.0195 8.3894-5.6567 8.3894h-16.574c-8.6584 0.0638-11.858-4.9487-13.494-11.384z"
         id="path93" />
      <path
         d="m378.81 218.64 24.949 43.774-12.135-43.774h9.1399l21.812 79.738h-16.425l-24.821-46.634 12.821 46.634h-10.025l-21.954-79.738z"
         id="path95" />
      <path
         d="m486.26 218.64 24.956 43.774-12.135-43.774h9.1328l21.749 79.738h-16.361l-24.885-46.634 12.814 46.634h-9.954l-22.018-79.738z"
         id="path97" />
      <path
         d="m406.9 218.64h12.616l22.089 79.738h-12.609z"
         id="path99" />
      <path
         d="m458.45 241.66c-1.3664-5.0053-2.7257-9.9469-4.1628-15.023-0.0636-0.58053-0.60884-0.65134-1.154-0.65134-1.9752 0-4.0921 0.0709-6.1381 0.0709-1.2956 0-1.5646 0.58053-1.4301 1.7558 3.2708 15.802 8.3186 32.644 12.885 49.098 0.67965 2.3434 1.2956 4.7505 1.9044 7.0868 0.95575 3.1929 2.4566 6.3151 4.9841 6.4425h4.2903c1.3664-0.12741 1.9115-0.71504 1.7062-1.8832-4.3611-15.738-8.5876-31.221-12.885-46.896m-29.112-14.244v-1.8832c0.19822-4.4177 2.9947-6.7611 8.2478-6.8956 6.5487-0.0638 12.411-0.0638 17.862 0 1.0266 0 2.046 0.0709 3.0018 0.19822 3.6106 0.38939 6.3363 1.954 7.4974 5.7841l16.977 61.848c0.2053 1.1115 0.41061 2.1522 0.4814 3.1221v2.2797c-0.41061 4.6797-3.4761 6.6336-8.4602 6.5062-5.4513 0.0638-10.91 0.0638-16.496 0.0638-0.48142-0.0638-1.0195-0.0638-1.5009-0.0638-4.3611 0.38938-8.7292-2.8602-10.973-10.081-6.0036-19.639-12.687-41.105-16.637-60.878"
         id="path101" />
    </g>
    <path
       d="m257.25 222.41c-0.0709-0.0638-0.2053-0.19116-0.2761-0.32567 0.2761-0.32567 0.61593-0.65132 0.95575-1.0407 0.20531-0.25486 0.75044-0.32567 1.3664-0.32567 0.26901 0 0.54513 0.0709 0.75044 0.0709 0.19822 0.0636 0.33982 0.12741 0.33982 0.4531v0.32565c-1.0903 0-1.4372 0.0638-1.5009 0.12741-0.54513 0.26195-1.0903 0.52389-1.6354 0.71505"
       fill="#fff"
       id="path105" />
    <path
       d="m250.83 224.56c-0.47434 0.0709-0.88495 0.19824-1.2956 0.26195-0.26901 0-0.47432-0.12741-0.40353-0.32565v-0.32567c-0.0709-0.32567-0.14154-0.65134-0.27611-0.77877l-0.41062 0.19824c0.0709 0.4531 0 0.84247-0.26903 1.1044-0.13448 0.0638-0.2761 0.12741-0.41062 0-0.13448-0.0638-0.20531-0.19822-0.33982-0.26195-0.0709-0.12741-0.0709-0.26194 0-0.38937 0.13448-0.77877 0.26903-1.5646 0.61594-1.954 0.19822-0.32567 0.94866-0.32567 1.2248 0 0.61592 0.71504 1.0903 1.5646 1.5646 2.4708"
       fill="#fff"
       id="path107" />
  </g>
</svg>
