<?xml version="1.0" encoding="UTF-8" standalone="no"?>
<!-- Created with Inkscape (http://www.inkscape.org/) -->

<svg
   xmlns:dc="http://purl.org/dc/elements/1.1/"
   xmlns:cc="http://creativecommons.org/ns#"
   xmlns:rdf="http://www.w3.org/1999/02/22-rdf-syntax-ns#"
   xmlns:svg="http://www.w3.org/2000/svg"
   xmlns="http://www.w3.org/2000/svg"
   xmlns:sodipodi="http://sodipodi.sourceforge.net/DTD/sodipodi-0.dtd"
   xmlns:inkscape="http://www.inkscape.org/namespaces/inkscape"
   version="1.1"
   id="svg2"
   xml:space="preserve"
   width="260.2038"
   height="296.29877"
   viewBox="0 0 260.2038 296.29877"
   sodipodi:docname="koeln.svg"
   inkscape:version="0.92.3 (2405546, 2018-03-11)"
   inkscape:export-filename="/home/simon/projects/led_panels/sprites/clubs/koeln42.png"
   inkscape:export-xdpi="13.607886"
   inkscape:export-ydpi="13.607886"><metadata
     id="metadata8"><rdf:RDF><cc:Work
         rdf:about=""><dc:format>image/svg+xml</dc:format><dc:type
           rdf:resource="http://purl.org/dc/dcmitype/StillImage" /><dc:title></dc:title></cc:Work></rdf:RDF></metadata><defs
     id="defs6" /><sodipodi:namedview
     pagecolor="#000000"
     bordercolor="#666666"
     borderopacity="1"
     objecttolerance="10"
     gridtolerance="10"
     guidetolerance="10"
     inkscape:pageopacity="1"
     inkscape:pageshadow="2"
     inkscape:window-width="1920"
     inkscape:window-height="1016"
     id="namedview4"
     showgrid="false"
     fit-margin-top="0"
     fit-margin-left="0"
     fit-margin-right="0"
     fit-margin-bottom="0"
     inkscape:zoom="0.38583105"
     inkscape:cx="820.68825"
     inkscape:cy="154.90251"
     inkscape:window-x="0"
     inkscape:window-y="27"
     inkscape:window-maximized="1"
     inkscape:current-layer="g10" /><g
     id="g10"
     inkscape:groupmode="layer"
     inkscape:label="ink_ext_XXXXXX"
     transform="matrix(1.3333333,0,0,-1.3333333,-214.25066,611.66943)"><g
       id="g1100"><path
         d="m 160.688,297.847 c 0,33.874 27.468,61.334 61.309,61.334 33.884,0 61.349,-27.46 61.349,-61.334 0,-33.874 -27.465,-61.319 -61.349,-61.319 -33.841,0 -61.309,27.445 -61.309,61.319 v 0"
         style="fill:#ec1d26;fill-opacity:1;fill-rule:nonzero;stroke:none;stroke-width:0.1"
         id="path156"
         inkscape:connector-curvature="0" /><path
         d="m 168.112,297.847 c 0,29.784 24.166,53.933 53.955,53.933 29.777,0 53.939,-24.149 53.939,-53.933 0,-29.78 -24.162,-53.909 -53.939,-53.909 -29.789,0 -53.955,24.129 -53.955,53.909 v 0"
         style="fill:#ffffff;fill-opacity:1;fill-rule:nonzero;stroke:none;stroke-width:0.1"
         id="path158"
         inkscape:connector-curvature="0" /><path
         d="m 172.117,297.852 c 0,27.586 22.37,49.951 49.95,49.951 27.568,0 49.939,-22.365 49.939,-49.951 0,-27.587 -22.371,-49.942 -49.939,-49.942 -27.58,0 -49.95,22.355 -49.95,49.942 v 0"
         style="fill:#ec1d26;fill-opacity:1;fill-rule:nonzero;stroke:none;stroke-width:0.1"
         id="path160"
         inkscape:connector-curvature="0" /><path
         d="m 194.468,256.38 z m 55.224,0 z m -32.62,71.888 3.529,5.249 1.466,-18.66 1.512,18.66 3.523,-5.249 4.06,18.7 2.4,11.048 6.479,-29.748 3.531,5.249 6.12,-77.137 v -0.138 c -7.914,-5.266 -17.412,-8.333 -27.625,-8.333 -10.203,0 -19.691,3.058 -27.599,8.31 v 0.161 l 6.141,77.137 3.534,-5.249 6.463,29.748 6.466,-29.748"
         style="fill:#100f0d;fill-opacity:1;fill-rule:nonzero;stroke:none;stroke-width:0.1"
         id="path162"
         inkscape:connector-curvature="0" /><path
         d="m 274.182,300.585 -7.869,27.23 -97.163,-27.326 6.017,-27.73 99.015,27.826"
         style="fill:#ffffff;fill-opacity:1;fill-rule:nonzero;stroke:none;stroke-width:0.1"
         id="path164"
         inkscape:connector-curvature="0" /><path
         d="m 274.537,330.087 c -1.034,1.059 -1.956,2.508 -1.956,2.508 -11.054,16.023 -29.569,26.572 -50.541,26.572 l -0.107,-0.136 c -0.815,-0.164 -1.657,-0.673 -2.812,-1.328 -1.867,-0.978 -3.831,-1.044 -5.759,-1.142 -1.544,0.098 -0.472,2.017 -1.412,1.693 -1.09,-0.299 -3.496,-1.122 -4.528,-1.777 -0.099,-2.372 -7.279,-4.851 -11.152,-2.98 0.453,5.684 9.893,10.615 23.399,12.65 8.421,5.019 9.612,6.329 15.151,11.241 2.49,2.207 3.635,3.114 4.44,3.283 0.361,0.15 0.107,0.37 -0.183,0.379 -0.757,0.327 -1.118,0.848 -1.399,1.452 -0.435,0.934 -0.145,2.043 -0.772,2.627 -0.744,0.505 -1.651,0.875 -1.743,2.106 -0.043,0.622 -0.089,1.613 -0.992,1.683 -1.255,-0.037 -1.703,-0.308 -1.844,2.274 -0.066,1.123 -0.027,2.942 -0.612,2.99 -0.842,0.083 -1.675,-2.742 -2.583,-9.688 -0.659,-5.052 -3.668,-10.769 -4.707,-10.049 -1.005,0.876 -0.158,6.091 -1.693,8.415 -0.233,0.417 0.496,-5.72 -4.134,-10.454 -0.637,-0.689 -1.185,-0.281 -1.185,0.07 0.178,1.276 0.796,8.7 -0.678,10.974 -1.165,1.866 -2.419,1.964 -4.252,2.759 -1.506,0.721 -2.755,2.639 -3.19,4.104 -1.226,4.748 0.931,9.791 1.347,11.409 0.407,1.564 2.067,8.616 1.651,11.559 -0.674,2.241 -1.703,4.276 -0.22,7.738 0.22,0.36 0.398,0.627 0.103,0.931 -2.208,1.698 -3.691,3.046 -4.314,6.408 -0.368,1.984 -0.064,2.863 -0.822,4.58 -0.263,0.689 -0.862,1.077 -0.655,1.525 0.472,0.474 1.174,0.474 1.819,0.459 3.663,-0.608 5.867,-2.662 7.251,-4.898 0.478,0.94 0.861,1.515 1.53,2.17 -0.149,2.269 0.903,3.99 2.409,5.47 -0.257,2.81 1.662,4.528 3.018,5.149 0.215,2.406 1.656,4.174 3.939,5.775 1.552,3.558 3.844,4.709 5.192,5.537 1.433,0.786 3.472,1.713 7.101,2.268 1.567,0.198 1.899,-0.775 1.17,-1.444 -2.358,-1.904 -7.855,-7.779 -10.095,-14.286 0.71,1.258 2.424,3.409 4.555,4.42 1.204,3.134 4.123,4.753 5.891,5.618 1.033,1.889 3.308,4.262 6.609,4.969 3.715,3.181 9.768,3.096 10.507,3.078 1.232,-0.062 2.77,-0.052 3.017,-1.17 0.432,-1.619 -17.991,-11.096 -20.816,-30.21 -0.098,-0.857 4.523,4.354 9.355,3.568 0.272,-0.12 0.478,-0.318 0.609,-0.594 2.25,-4.86 0.113,-9.323 0.655,-9.655 9.557,-5.618 11.633,-12.724 15.746,-16.748 5.792,-5.518 12.569,-5.31 18.24,-9.401 5.394,-3.804 11.567,-16.612 14.707,-19.256 13.585,-9.67 25.027,-18.15 34.107,-32.624 1.203,-1.885 1.961,-3.013 4.289,-3.229 5.058,0.127 9.231,6.124 12.609,11.574 0.186,0.286 0.426,0.37 0.631,0.206 0.397,-0.304 0.177,-1.113 0.599,-1.165 1.104,-0.154 2.039,3.149 3.166,3.875 0.451,0.318 1.119,0.045 0.969,-0.525 -0.332,-1.259 -1.123,-2.727 -1.174,-3.686 0,-0.239 0.205,-0.188 0.328,-0.034 0.209,0.248 0.496,0.337 0.724,0.29 0.478,-0.102 0.431,-0.71 0.295,-1.009 -0.416,-0.778 -0.776,-1.568 -0.828,-2.48 -0.019,-0.771 0.594,-0.216 0.964,-0.435 0.524,-0.234 0.417,-0.855 0.135,-1.599 -1.413,-3.126 -5.744,-14.572 -16.042,-13.09 -1.313,0.23 -1.987,1.189 -1.588,-0.285 2.628,-8.87 -2.555,-28.124 -0.357,-37.294 0.632,-2.619 3.611,-4.743 4.524,-6.112 0.538,-0.517 1.16,-1.607 1.295,-2.823 0.694,-7.821 -1.295,-8.565 2.326,-23.136 0.303,-1.199 0.267,-2.073 -0.355,-2.775 -0.646,-0.738 -1.129,-0.416 -1.325,-1.108 -0.472,-4.697 -2.408,-8.411 -5.173,-9.412 -3.817,-1.329 -6.31,0.471 -5.755,3.69 1.08,5.82 3.873,6.934 4.847,12.851 0.734,5.018 -2.301,10.171 -3.335,11.92 -0.955,1.608 -3.383,5.983 -6.387,8.76 -0.401,0.493 -0.723,0.371 -0.864,-0.045 -1.146,-3.617 0.056,-11.04 0.57,-12.959 0.848,-3.078 1.816,-6.863 1.632,-9.37 -0.163,-2.46 -1.416,-3.966 -2.585,-5.104 -1.788,-1.73 -0.646,-4.626 -4.001,-6.024 -2.465,-1.025 -4.275,-0.581 -5.108,-0.15 -0.772,0.491 -1.142,0.706 -1.225,1.652 -0.006,1.126 0.112,2.741 1.216,4.121 1.797,2.241 4.182,5.417 4.599,11.39 0.781,10.825 -8.846,23.152 -9.455,23.292 -0.619,0.141 -0.402,-0.403 -0.894,-0.262 -0.953,0.781 -2.091,3.696 -3.115,4.786 -0.547,0.761 -1.928,0.43 -2.147,1.52 -0.118,0.833 -0.459,1.679 -1.137,2.034 -0.445,0.263 -0.767,-0.186 -1.17,0.034 -1.179,0.921 -1.225,4.234 -1.609,4.443 -0.421,0.184 -0.814,-0.153 -1.113,0 -0.861,0.37 -0.655,3.144 -1.343,5.113 -0.318,1.029 -1.365,0.998 -1.661,2.241 -0.457,2.251 -0.397,5.175 -2.815,6.288 -2.48,1.081 -4.06,-0.403 -5.24,1.385 -0.623,0.767 -0.519,2.031 -2.124,2.198 -0.851,0.426 -1.193,1.468 -1.96,1.235 -0.416,-0.122 -0.07,-0.925 -0.926,-1.469 -1.152,-0.08 -2.307,3.031 -3.902,2.896 -0.529,-0.202 -0.734,-0.805 -1.338,-0.842 -0.686,-0.033 -0.744,3.481 -2.989,4.327 -0.407,0.149 -0.701,-0.594 -1.047,-0.099 0,0 -0.926,0.702 -1.993,1.829"
         style="fill:#100f0d;fill-opacity:1;fill-rule:nonzero;stroke:none;stroke-width:0.1"
         id="path166"
         inkscape:connector-curvature="0" /><path
         d="m 215.57,363.073 c -1.249,-0.931 -2.086,-2.107 -2.774,-3.387 -1.497,-0.235 -3.91,-1.245 -5.637,-2.02 -0.637,-0.333 -3.059,-0.521 -5.252,-0.773 -0.334,0.032 -0.417,0.239 -0.417,0.506 -0.177,1.665 10.127,5.87 14.08,6.277 0.361,0 0.576,-0.174 0,-0.603 z m 107.978,-82.745 c 0.59,-0.02 0.505,0.187 1.024,0 0.463,-0.02 0.45,-2.002 0.384,-3.027 -0.111,-0.636 -0.262,-1.716 0.412,-2.208 0.604,-0.514 -0.796,-2.423 0.215,-3.343 0.561,-0.774 -0.627,-2.804 0.281,-3.921 0.445,0 0.776,-0.132 1.015,-0.497 -0.384,-2.349 0.66,-6.053 0.294,-7.123 -1.029,-1.62 -1.805,-1.452 -2.686,-4.113 -1.318,-2.573 -5.047,-0.969 -4.317,1.109 2.64,4.462 3.606,9.43 3.747,11.601 0.44,5.632 -2.529,14.586 -2.857,15.835 -0.076,1.127 0.172,1.801 1.056,0.79 1.315,-2.053 0.843,-4.982 1.432,-5.103 z m -108.664,147.09 c -0.071,-0.641 -0.071,-1.632 0.784,-3.685 -0.855,-0.122 -1.375,-0.871 -2.119,-0.455 -2.339,1.277 -3.648,3.654 -4.406,6.059 -0.491,1.378 -0.445,3.022 -1.216,4.271 4.042,-0.267 7.003,-5.717 6.957,-6.19 z m 5.481,9.188 c 0.964,1.212 2.914,1.764 2.83,2.152 -0.169,0.35 -0.892,0.033 -1.436,0 -0.224,-0.037 -0.533,0.019 -0.5,0.289 0.912,3.191 4.032,3.766 4.978,4.777 0.112,0.196 0,0.196 -0.244,0.333 -0.496,0.022 -1.282,-0.521 -1.282,-0.047 0.37,3.179 4.243,4.716 4.974,4.962 0.191,0.165 0.018,0.389 -0.22,0.426 -0.333,-0.037 -0.6,-0.238 -0.646,0.164 0.379,1.581 2.484,2.844 3.84,3.518 1.384,0.57 4.126,1.412 4.126,0.992 0,-0.168 -2.151,-1.211 -2.862,-2.274 -0.59,-0.874 -1.129,-1.445 -1.175,-2.826 -2.198,-1.079 -3.283,-3.517 -3.434,-5.837 -1.557,-0.805 -2.76,-3.635 -2.241,-4.801 -1.801,-1.745 -2.684,-4.27 -2.587,-6.796 -3.891,-5.095 -2.74,-7.035 1.553,-8.612 0.633,-0.202 1.236,-0.238 1.357,0.065 0.15,0.305 -0.369,0.492 -0.561,0.927 -2.334,5.206 0.608,7.808 4.716,9.557 0.323,0.153 0.079,0.519 -0.403,0.509 -1.108,0.01 -2.105,-0.271 -2.246,0.08 -0.597,1.703 3.814,5.22 5.983,5.89 0.928,0.272 0.535,0.735 0.155,0.673 -0.584,0.052 -1.478,-0.285 -1.769,0.473 0.553,1.918 5.839,4.458 6.617,4.911 0.481,0.305 0.682,0.848 -1.653,0.37 -0.224,-0.033 -0.463,-0.033 -0.359,0.285 0.444,1.386 5.389,3.316 7.905,4.191 0.397,0.184 0.51,0.806 -0.678,0.573 -0.426,-0.067 -1.212,-0.352 -1.367,-0.034 0.155,1.871 5.623,3.317 7.574,3.738 0.44,0.148 0.519,0.402 0.136,0.589 -0.618,0.182 -1.6,-0.304 -1.226,0.351 1.474,0.926 5.361,0.941 6.714,0.724 0.379,-0.068 0.462,-0.153 0.5,-0.234 -0.416,-0.982 -6.966,-2.895 -7.775,-6.828 -1.96,-0.814 -3.878,-2.681 -4.102,-4.281 -1.034,-0.557 -3.097,-2.255 -3.219,-4.594 -1.127,-0.842 -4.079,-3.461 -3.097,-6.648 -1.576,-1.476 -2.798,-2.992 -2.736,-7.147 0.023,-1.432 -1.834,-3.752 -3.757,-4.289 -0.537,-0.221 -0.322,-0.656 0.066,-0.759 3.213,-0.945 6.203,0.795 7.368,1.9 3.709,3.536 6.178,4.809 7.848,5.019 0.306,0.08 0.306,-0.14 0.352,-0.309 0.238,-0.926 0.814,-3.176 0.009,-6.339 -1.053,-3.957 -4.078,-5.791 -4.939,-6.867 -0.15,-0.154 0.425,-1.834 0.12,-2.695 -0.349,-1.094 0.043,-1.767 0.441,-1.936 1.099,-0.403 1.876,3.687 2.531,3.583 0.528,-0.027 0.438,-0.922 1.07,-1.244 0.332,-0.118 0.824,-0.014 0.881,0.356 0.079,1.146 0.505,3.938 0.78,4.238 0.203,0.252 0.824,-1.011 0.861,-1.782 0.047,-3.181 -1.745,-5.885 -0.692,-8.079 0.229,-0.467 0.757,-0.431 1.127,-0.084 0.959,1.029 1.615,4.767 3.751,5.233 2.878,0.642 5.727,-7.25 3.697,-9.355 -0.987,-0.837 -2.217,-0.103 -3.444,-0.777 -1.313,-0.767 -1.197,-3.695 -2.099,-4.911 -0.53,-0.539 -1.166,-0.623 -2.401,-0.726 -2.609,-0.196 -1.815,-7.653 -1.412,-8.981 0.257,-0.79 0.815,-0.641 1.183,-0.37 0.374,0.318 0.66,1.852 0.734,3.284 0.108,0.448 0.898,0.637 1.465,1.188 0.617,0.478 0.295,0.997 0.664,1.464 0.533,0.59 1.058,0.07 1.487,0.73 1.127,0.936 0.323,2.405 1.236,3.022 1.333,0.88 2.525,0.44 3.705,1.736 0.724,0.804 0.819,2.507 1.833,2.797 5.404,0.132 10.778,-6.095 11.7,-7.948 2.672,-5.529 -1.605,-13.88 1.319,-15.478 3.682,-2.14 2.887,-6.293 2.48,-7.336 -0.795,-2.125 -6.681,-4.813 -7.444,-9.726 -0.379,-4.715 2.083,-3.738 2.256,-3.147 0.188,0.589 0.356,1.36 0.645,1.95 0.229,0.518 0.949,0.289 1.034,-0.216 0.141,-0.439 1.151,-1.703 2.644,1.076 0.949,1.764 3.489,4.037 5.388,5.347 1.876,1.329 2.325,5.487 2.648,6.433 0.248,0.823 0.935,0.823 1.039,1.698 0.064,0.911 -1.642,3.921 -0.627,6.076 0.476,0.717 1.619,1.231 2.469,0.234 0.898,-1.029 -0.551,-4.411 1.063,-4.49 1.38,-0.039 1.534,1.58 2.731,1.477 1.216,-0.238 -0.977,-4.696 0.225,-5.384 0.739,-0.304 1.661,0.051 2.039,-0.688 0.342,-1.229 -1.861,-3.47 0.038,-3.47 20.13,0.355 27.479,-15.481 26.187,-18.375 -0.607,-1.096 -3.032,0.542 -3.381,-0.572 -1.839,-6.194 2.315,-10.885 3.517,-11.694 0.356,-0.202 0.987,0.083 0.941,0.86 -0.201,1.768 -1.179,2.709 -0.987,4.458 0.341,3.079 7.218,1.179 7.564,-1.165 0.136,-0.874 0.182,-1.594 0.959,-2.334 0.978,-0.925 3.326,0.117 3.556,-1.932 0.294,-3.976 -4.664,-4.205 -8.099,-6.67 -1.637,-1.259 -1.263,-2.134 0.118,-2.587 1.654,-0.441 4.294,0.032 5.626,-1.923 1.896,-2.709 -0.594,-8.378 -0.738,-10.765 -0.141,-2.427 4.206,-9.51 4.295,-13.127 0.307,-1.804 -0.937,-2.777 -2.467,-1.294 -1.477,1.548 -3.025,3.934 -4.177,5.725 -0.331,0.563 -1.206,0.6 -1.188,-0.561 -0.018,-3.129 14.81,-22.431 15.184,-25.594 0.343,-1.664 -0.584,-3.078 -0.19,-4.695 0.13,-0.474 0.738,-0.202 0.785,-0.582 0.084,-1.071 -1.006,-2.694 0.543,-3.471 0.773,-2.123 0,-3.007 0.402,-4.762 0.202,-1.749 1.03,-4.177 1.216,-5.94 -0.416,-4.983 -2.324,-6.923 -3.845,-7.663 -1.305,-0.655 -1.847,0.523 -1.731,1.539 0.347,3.012 3.687,8.355 2.353,14.376 -3.424,15.488 -19.998,26.482 -22.767,32.367 -0.889,2.218 -4.066,2.469 -4.247,5.075 -0.315,0.842 -1.151,0.594 -1.862,1.366 -0.6,0.673 -0.581,2.709 -1.222,4.196 -0.187,0.469 -0.768,0.234 -1.197,0.684 -2.358,3.102 -1.853,18.243 -3.952,20.311 -1.549,0.866 -2.756,-1.543 -4.685,-1.745 -1.477,-0.154 -3.914,3.518 -4.808,2.586 -0.725,-0.719 -0.412,-2.586 -0.355,-2.876 0.074,-0.256 0.444,-1.548 -0.057,-1.548 -0.448,-0.019 -1.103,0.908 -2.97,1.671 -1.245,0.454 -2.428,0 -3.004,0.369 -1.272,1.38 0.043,4.27 -2.095,5.093 -0.6,0.234 -0.707,1.764 -1.016,2.377 -0.295,0.435 -0.907,0.403 -1.183,0.74 -0.58,0.874 -0.987,1.951 -1.249,3.18 -0.214,0.842 -2.17,-0.206 -2.321,1.128 -0.19,0.889 -1.234,1.174 -2.043,1.315 -0.988,0.116 -0.575,2.282 -1.426,2.642 -0.371,0.164 -0.506,-0.257 -0.89,-0.061 -0.398,0.497 -0.323,0.965 -0.824,1.32 -0.42,0.285 -0.837,-0.202 -1.15,0.149 -1.245,1.516 -0.254,4.061 -0.902,4.814 -0.427,0.469 -1.166,-0.052 -1.816,0.505 -0.631,0.487 -0.735,1.282 -1.114,1.394 -1.109,0.019 -1.497,0.22 -1.951,0.778 -2.02,2.825 -1.791,6.077 -2.483,7.231 -0.454,0.763 -1.132,1.234 -1.642,-0.196 -1.011,-2.461 -0.903,-11.629 -3.85,-12.874 -2.264,-1.113 -4.286,2.793 -5.404,3.484 -0.495,0.268 -0.59,-0.56 -0.945,-0.594 -1.028,0.403 -0.805,1.634 -1.632,2.121 -0.814,0.355 -0.468,-0.787 -0.936,-0.689 -0.804,0.739 -0.804,2.723 -1.516,3.074 -0.579,0.225 -0.916,-0.449 -1.248,-0.164 -1.165,1.01 -0.352,3.266 -1.754,3.977 -0.608,0.196 -0.515,-0.829 -1.142,-0.539 -0.603,0.22 -0.496,3.415 -2.367,3.107 -0.275,-0.029 -0.186,0.406 -0.379,0.574 -0.552,0.071 -0.936,-0.701 -1.515,-0.206 -0.787,1.048 -1.39,1.554 -1.9,1.943 -0.786,0.669 -1.956,-0.173 -2.924,0.552 -3.414,1.496 -11.236,-4.478 -14.764,-7.976 -1.286,1.197 -3.022,-0.067 -4.481,-0.216 -0.523,-0.121 -2.17,-0.051 -0.881,1.731 3.201,3.382 5.536,3.213 11.566,7.522 4.402,3.228 8.355,6.377 9.776,7.303 1.175,0.608 3.037,1.108 4.603,-0.945 2.204,-2.877 7.121,-7.706 9.217,-8.645 4.313,-1.872 4.528,1.431 5.052,2.577 0.462,1.155 0.748,0.196 0.719,-0.898 -0.009,-0.72 0.258,-1.731 0.848,-1.83 1.178,-0.139 1.193,0.754 1.362,1.326 1.347,5.299 6.562,11.676 8.62,10.365 1.512,-0.958 2.4,-0.958 2.756,0.861 0.398,2.339 -1.408,4.491 -1.896,6.952 -0.508,2.854 -0.195,6.61 -1.286,7.129 -0.635,0.272 -1.509,-0.346 -2.002,-1.038 -0.655,-0.876 -0.655,-1.806 -0.874,-2.863 -0.112,-0.59 -2.485,-1.23 -2.755,-4.309 -0.028,-0.556 -0.927,0.552 -1.573,0 -1.323,-1.007 -1.085,-6.007 -1.511,-6.292 -0.49,-0.051 -1.089,0.5 -1.291,-0.219 0.108,-0.806 -0.34,-2.76 -0.729,-2.91 -0.322,-0.098 -0.668,0.299 -1.127,0.033 -1.147,-0.96 -0.684,-2.289 -1.778,-3.556 -0.674,-0.822 -1.131,-0.248 -1.211,0.476 -0.159,1.241 -1.147,3.093 -2.012,3.972 -2.54,2.625 -0.973,6.999 -4.561,8.819 -1.081,0.533 -1.137,1.056 -1.259,2.03 -0.046,1.062 -0.655,1.801 -1.212,1.941 -0.987,0.285 -1.154,0.82 -1.192,1.512 0.089,1.871 -1.304,1.95 -2.045,2.105 -1.754,0.168 -1.81,0.504 -1.262,4.879 0.163,1.057 0.173,2.273 -0.168,3.265 -0.918,1.347 -2.924,0.486 -2.649,2.691 0.211,1.449 2.802,3.334 3.911,4.527 0.673,0.753 1.099,2.709 -1.211,2.237 -5.259,-1.399 -9.454,-10.714 -10.437,-12.5 -3.809,-6.971 -7.11,-9.745 -10.203,-10.82 -1.445,-0.505 -6.455,-0.979 -7.48,3.935 -0.529,2.575 0.113,5 1.277,9.036 5.08,17.655 -0.594,14.287 2.185,20.162 1.787,2.004 4.328,1.727 6.9,2.04 0.57,0.076 0.364,0.82 0.229,1.039 -0.103,0.201 -0.701,0.454 -1.493,0.603 -0.79,0.131 -2.478,1.633 -2.624,3.247 -0.148,1.768 0.992,2.864 1.75,3.635 1.075,1.061 1.853,1.179 1.866,1.412 -0.065,0.946 -2.049,-0.383 -2.221,0 -0.422,1.464 0.795,2.812 1.599,3.757"
         style="fill:#ffffff;fill-opacity:1;fill-rule:nonzero;stroke:none;stroke-width:0.1"
         id="path168"
         inkscape:connector-curvature="0" /><path
         d="m 247.488,426.777 c 0.22,0.065 0.294,-0.079 0.294,-0.168 -0.168,-2.876 -3.221,-8.635 -7.193,-9.66 -0.235,-0.047 -0.379,-0.019 -0.463,0.201 -0.36,2.003 0.901,5.408 4.131,6.647 1.599,0.623 2.357,1.685 3.231,2.98"
         style="fill:#100f0d;fill-opacity:1;fill-rule:nonzero;stroke:none;stroke-width:0.1"
         id="path170"
         inkscape:connector-curvature="0" /><path
         d="m 308.737,362.362 c 1.01,-0.319 1.432,-1.357 1.076,-1.95 -0.416,-0.961 -1.273,-1.616 -1.291,-2.537 -0.018,-0.776 -0.154,-1.248 -0.772,-1.45 -1.136,-0.122 -1.801,2.236 -2.816,0.604 -0.552,-0.843 -1.698,-0.267 -1.848,0.201 -0.201,0.724 -0.636,1.464 -1.365,1.497 -2.367,0.069 -2.957,3.775 -2.578,4.775 1.825,4.295 6.32,-0.009 9.594,-1.14"
         style="fill:#100f0d;fill-opacity:1;fill-rule:nonzero;stroke:none;stroke-width:0.1"
         id="path172"
         inkscape:connector-curvature="0" /><path
         d="m 234.119,415.47 c 0.182,-0.738 0.046,-0.791 -0.585,-0.369 -2.077,2.175 -3.849,1.615 -5.108,0.953 -0.614,-0.25 -0.801,-0.232 -0.623,0.325 1.914,2.927 5.398,1.482 6.316,-0.909"
         style="fill:#100f0d;fill-opacity:1;fill-rule:nonzero;stroke:none;stroke-width:0.1"
         id="path174"
         inkscape:connector-curvature="0" /><path
         d="m 223.326,415.068 c 1.044,-1.501 0.59,-3.84 -0.318,-5.59 -0.721,-1.348 -1.9,-3.504 -2.362,-4.444 -0.192,-0.566 -0.603,-0.604 -0.945,-0.45 -0.347,0.067 1.273,2.761 1.732,5.918 0.186,1.296 -0.16,3.186 0.784,4.599 0.324,0.469 0.809,0.319 1.109,-0.033 v 0"
         style="fill:#100f0d;fill-opacity:1;fill-rule:nonzero;stroke:none;stroke-width:0.1"
         id="path176"
         inkscape:connector-curvature="0" /><path
         d="m 232.111,413.656 c 0.759,-1.754 -1.099,-2.614 -2.184,-2.831 -0.762,-0.135 -1.332,0.08 -1.979,0.502 -0.355,0.257 -0.164,0.438 -0.444,0.575 -0.58,0.032 -0.44,-0.337 -1.067,-0.486 -0.435,-0.053 -0.472,0.149 -0.181,0.588 0.705,1.175 1.094,2.002 2.259,2.47 1.08,0.44 2.665,0.894 3.596,-0.818"
         style="fill:#100f0d;fill-opacity:1;fill-rule:nonzero;stroke:none;stroke-width:0.1"
         id="path178"
         inkscape:connector-curvature="0" /><path
         d="m 226.021,406.284 c 0.903,-3.519 0.235,-4.881 -0.576,-5.723 -0.299,-0.27 -2.189,-0.606 -2.437,1.816 0.945,1.141 1.525,2.877 2.091,4.108 0.398,0.79 0.651,0.842 0.922,-0.201"
         style="fill:#100f0d;fill-opacity:1;fill-rule:nonzero;stroke:none;stroke-width:0.1"
         id="path180"
         inkscape:connector-curvature="0" /><path
         d="m 219.009,396.558 c -0.412,-2.208 -1.315,-3.331 -2.888,-3.687 -1.828,-0.219 -2.603,1.801 -2.37,1.787 1.782,-0.322 3.662,0.688 4.779,2.134 0.273,0.383 0.545,0.116 0.479,-0.234"
         style="fill:#100f0d;fill-opacity:1;fill-rule:nonzero;stroke:none;stroke-width:0.1"
         id="path182"
         inkscape:connector-curvature="0" /><path
         d="m 351.532,341.764 c 0.318,-0.838 -0.571,-1.898 -1.493,-2.924 -0.916,-1.062 -4.847,-3.84 -8.126,-3.686 -0.911,0.136 -1.893,1.127 -1.584,2.339 0.317,1.025 3.48,1.296 5.916,2.137 1.77,0.604 2.611,0.978 4.015,2.055 0.884,0.668 1.09,0.266 1.272,0.079"
         style="fill:#ffffff;fill-opacity:1;fill-rule:nonzero;stroke:none;stroke-width:0.1"
         id="path184"
         inkscape:connector-curvature="0" /><path
         d="m 254.833,311.932 c -1.329,0.889 -3.037,1.47 -5.066,0.908 -2.695,-0.761 -5.09,-3.42 -5.347,-6.039 -0.239,-2.615 1.898,-4.006 4.58,-3.246 2.067,0.566 3.784,1.88 5.355,3.671 l -1.113,-9.048 c -1.492,-1.069 -4.86,-2.287 -6.455,-2.735 -7.059,-1.975 -12.07,1.782 -11.425,8.599 0.647,6.997 6.859,14.182 14.116,16.237 2.015,0.575 4.064,0.823 5.921,0.673 z m -37.779,-1.132 16.508,4.678 -0.613,-6.923 -7.522,-2.058 -0.221,-2.526 6.602,1.834 -0.598,-6.176 -6.588,-1.865 -0.8,-8.398 -9.042,-2.545 z m -5.871,-21.523 c -0.225,-2.483 -2.864,-4.603 -5.241,-5.328 -2.421,-0.627 -4.756,0.065 -4.522,2.573 0.233,2.605 2.876,4.8 5.267,5.422 2.373,0.683 4.73,-0.089 4.496,-2.667 z m -23.75,12.827 12.742,3.958 -2.25,-23.989 -8.903,-2.484 1.522,16.302 -3.827,-1.323 0.716,7.536"
         style="fill:#ec1d26;fill-opacity:1;fill-rule:nonzero;stroke:none;stroke-width:0.1"
         id="path186"
         inkscape:connector-curvature="0" /><path
         d="m 198.374,272.113 4.225,1.183 -0.692,-6.899 0.098,0.027 c 0.172,0.678 0.475,1.32 0.766,1.975 l 2.523,5.656 4.756,1.31 -4.398,-8.73 3.491,-6.984 -5.043,-1.413 -1.708,4.243 c -0.201,0.52 -0.524,1.001 -0.534,1.609 l -0.12,-0.032 -0.473,-6.605 -4.224,-1.152 z m 35.243,9.833 4.197,1.114 3.182,-7.682 h 0.098 c -0.042,1.324 -0.126,2.615 -0.019,3.99 l 0.421,4.73 4.163,1.146 -1.319,-15.784 -4.177,-1.146 -3.125,7.218 -0.169,-0.031 c 0.052,-1.063 0.098,-2.031 0,-3.112 l -0.426,-5.15 -4.13,-1.123 z m -9.143,-2.56 4.354,1.18 -0.893,-10.718 3.652,1.02 -0.42,-5.093 -8.019,-2.186 z m -11.093,-10.917 c -0.159,-1.834 0.688,-2.794 1.983,-2.461 1.315,0.37 2.359,1.886 2.512,3.649 0.141,1.74 -0.607,2.9 -1.982,2.493 -1.362,-0.383 -2.358,-2.039 -2.513,-3.681 z m 8.907,2.554 c -0.421,-5.076 -3.649,-9.001 -7.316,-9.997 -3.673,-1.038 -6.4,1.234 -5.97,6.306 0.407,4.954 3.668,9.001 7.33,10.034 3.626,1.03 6.354,-1.394 5.956,-6.343 z m -2.526,10.096 c -0.065,-0.974 -0.73,-1.901 -1.469,-2.149 -0.739,-0.237 -1.221,0.437 -1.155,1.357 0.097,0.96 0.716,1.885 1.46,2.115 0.719,0.248 1.262,-0.379 1.164,-1.323 z m -3.831,-1.109 c -0.094,-0.955 -0.768,-1.877 -1.506,-2.158 -0.702,-0.163 -1.207,0.474 -1.143,1.433 0.047,0.982 0.721,1.903 1.447,2.049 0.743,0.29 1.282,-0.371 1.202,-1.324"
         style="fill:#ffffff;fill-opacity:1;fill-rule:nonzero;stroke:none;stroke-width:0.1"
         id="path188"
         inkscape:connector-curvature="0" /></g></g></svg>