<?xml version="1.0" encoding="UTF-8" standalone="no"?>
<svg
   xmlns:dc="http://purl.org/dc/elements/1.1/"
   xmlns:cc="http://creativecommons.org/ns#"
   xmlns:rdf="http://www.w3.org/1999/02/22-rdf-syntax-ns#"
   xmlns:svg="http://www.w3.org/2000/svg"
   xmlns="http://www.w3.org/2000/svg"
   xmlns:sodipodi="http://sodipodi.sourceforge.net/DTD/sodipodi-0.dtd"
   xmlns:inkscape="http://www.inkscape.org/namespaces/inkscape"
   viewBox="0 0 257.8 240.16"
   version="1.1"
   id="svg14"
   sodipodi:docname="mainz.svg"
   inkscape:export-filename="/home/simon/projects/led_panels/sprites/clubs/mainz42.png"
   inkscape:export-xdpi="15.64"
   inkscape:export-ydpi="15.64"
   inkscape:version="0.92.3 (2405546, 2018-03-11)">
  <metadata
     id="metadata20">
    <rdf:RDF>
      <cc:Work
         rdf:about="">
        <dc:format>image/svg+xml</dc:format>
        <dc:type
           rdf:resource="http://purl.org/dc/dcmitype/StillImage" />
        <dc:title></dc:title>
      </cc:Work>
    </rdf:RDF>
  </metadata>
  <defs
     id="defs18" />
  <sodipodi:namedview
     pagecolor="#000000"
     bordercolor="#666666"
     borderopacity="1"
     objecttolerance="10"
     gridtolerance="10"
     guidetolerance="10"
     inkscape:pageopacity="1"
     inkscape:pageshadow="2"
     inkscape:window-width="790"
     inkscape:window-height="480"
     id="namedview16"
     showgrid="false"
     inkscape:zoom="0.9826782"
     inkscape:cx="128.89999"
     inkscape:cy="120.08"
     inkscape:window-x="0"
     inkscape:window-y="27"
     inkscape:window-maximized="0"
     inkscape:current-layer="svg14" />
  <path
     d="m128.9 240.16c71.19 0 128.9-53.76 128.9-120.08s-57.71-120.08-128.9-120.08-128.9 53.76-128.9 120.08 57.71 120.08 128.9 120.08z"
     fill="#fff"
     id="path2" />
  <g
     fill="#c3141e"
     id="g10">
    <path
       d="m107.53 121c-2.53-26.31-16.77-46.66-31.89-45.44s-25.34 23.55-22.84 49.87a81.39 81.39 0 0 0 2.74 14.67c5.38 18.8 17 31.76 29.14 30.78 11.26-.91 19.8-13.53 22.4-30.78a78.83 78.83 0 0 0 .44-19.09zm-25.27 23.59c-3.11.25-6.16-1.44-8.72-4.48-3.45-4.09-6-10.61-6.75-18.11-1.24-13.07 3.68-24.14 11-24.73s14.21 9.52 15.45 22.59c.78 8.27-.9 15.73-4.09 20.25-1.85 2.63-4.21 4.26-6.9 4.48z"
       id="path4" />
    <path
       d="m129.14 226.47h-.46a131.25 131.25 0 0 1 -27.84-3.47 138.55 138.55 0 0 0 17.16-50.57v-82.52l-48.63-42.78c-19.17 15.49-31.26 38.27-31.26 63.67 0 34.56 22.44 64.37 54.62 77.48l-10.21 28.66c-40.27-16.66-68.35-54-68.35-97.38 0-51.35 39.34-94.17 91.67-104.33a8.6 8.6 0 0 1 1.47-.12c4.31 0 7.8 3 7.8 6.78a6.86 6.86 0 0 1 -4.88 6.29 95.43 95.43 0 0 0 -26.39 9.39l44.83 39.32 45.25-39.34a95.46 95.46 0 0 0 -26.36-9.37 6.86 6.86 0 0 1 -4.88-6.29c0-3.74 3.49-6.78 7.8-6.78a8.59 8.59 0 0 1 1.47.13c52.33 10.15 91.67 53 91.67 104.33 0 43.39-28.07 80.73-68.35 97.38l-10.21-28.66c32.18-13.11 54.62-42.91 54.62-77.48 0-25.4-12.08-48.18-31.25-63.67l-48.63 42.77v82.52a138.56 138.56 0 0 0 17.2 50.57 131.26 131.26 0 0 1 -27.83 3.43z"
       id="path6" />
    <path
       d="m200.23 112.63c3.26 17.37-8.23 41.37-30.4 57.55-3.59 2.62-4.37 4.08-7 5.45l-5.08-14.73a40.61 40.61 0 0 0 8.24-5.08c10.44-7.63 16.06-17.89 14.45-26.52-1.1-5.87-5.66-11.68-13.28-6.11a87.17 87.17 0 0 0 -14.06 12.76l.11-42.26 35.08-30.06-.29 18.74-18.57 14.69.17 12.44a51.61 51.61 0 0 1 5.16-4.16c12.18-8.9 23.06-5.61 25.48 7.29z"
       id="path8" />
  </g>
  <path
     d="m128.9 233.56c67.27 0 121.81-50.81 121.81-113.48s-54.54-113.48-121.81-113.48-121.81 50.81-121.81 113.48 54.53 113.48 121.81 113.48z"
     fill="none"
     stroke="#c3141e"
     stroke-miterlimit="10"
     stroke-width="1.5"
     id="path12" />
</svg>
