<?xml version="1.0" encoding="UTF-8" standalone="no"?>
<svg
   xmlns:dc="http://purl.org/dc/elements/1.1/"
   xmlns:cc="http://creativecommons.org/ns#"
   xmlns:rdf="http://www.w3.org/1999/02/22-rdf-syntax-ns#"
   xmlns:svg="http://www.w3.org/2000/svg"
   xmlns="http://www.w3.org/2000/svg"
   xmlns:sodipodi="http://sodipodi.sourceforge.net/DTD/sodipodi-0.dtd"
   xmlns:inkscape="http://www.inkscape.org/namespaces/inkscape"
   width="420"
   height="420"
   viewBox="-105 -105 210 210"
   version="1.1"
   id="svg8"
   sodipodi:docname="wolfsburg.svg"
   inkscape:export-filename="/home/simon/projects/led_panels/sprites/clubs/wolfsburg42.png"
   inkscape:export-xdpi="10.08"
   inkscape:export-ydpi="10.08"
   inkscape:version="0.92.3 (2405546, 2018-03-11)">
  <metadata
     id="metadata14">
    <rdf:RDF>
      <cc:Work
         rdf:about="">
        <dc:format>image/svg+xml</dc:format>
        <dc:type
           rdf:resource="http://purl.org/dc/dcmitype/StillImage" />
        <dc:title></dc:title>
      </cc:Work>
    </rdf:RDF>
  </metadata>
  <defs
     id="defs12" />
  <sodipodi:namedview
     pagecolor="#000000"
     bordercolor="#666666"
     borderopacity="1"
     objecttolerance="10"
     gridtolerance="10"
     guidetolerance="10"
     inkscape:pageopacity="1"
     inkscape:pageshadow="2"
     inkscape:window-width="790"
     inkscape:window-height="480"
     id="namedview10"
     showgrid="false"
     inkscape:zoom="0.56190476"
     inkscape:cx="210"
     inkscape:cy="210"
     inkscape:window-x="0"
     inkscape:window-y="27"
     inkscape:window-maximized="0"
     inkscape:current-layer="svg8" />
  <g
     fill="#52a600"
     id="g6">
    <path
       d="M 0,0 a 100,100 0 1,0 0,84.52365 a 91,91 0 1,1 0,-84.52365"
       transform="translate(0,-100) rotate(-65)"
       id="path2" />
    <path
       d="M -25,-65 c -10,0 -29,2 -29,15 v 70 a 32,32 0 1,0 64,0 h -11 a 32,32 0 1,0 64,0 v -85 c -10,0 -29,2 -29,15 v 69 a 7.5,4.5 0 1,1 -15,0 v -67 c -10,0 -29,2 -29,15 v 52 a 7.5,4.5 0 1,1 -15,0"
       id="path4" />
  </g>
</svg>
